<svg xmlns="http://www.w3.org/2000/svg" viewBox="0 0 1024 1024">
  <rect width="1024" height="1024" fill="#ffffff" />
  <path d="M0,0v1024h1024V0H0ZM998.4,998.4H25.6V25.6h972.8v972.8Z" fill="#101314" />
  <path d="M337.871,239.744v-33.159h383.261l6.459,134.513c-14.226-73.201-69.363-101.354-135.748-101.354h-253.972Z" fill="#101314" />
  <path d="M424.483,481.132h134.511c34.864,0,58.047-5.211,69.707-15.657,15.668-13.825,24.258-38.084,26.091-72.789h16.584v212.834h-16.584c-4.124-29.802-8.43-48.988-12.576-57.44-5.383-10.435-14.271-18.727-26.55-24.718-12.301-5.99-31.199-9.06-56.672-9.06h-134.511v201.472c0,27.019,1.236,43.455,3.528,49.285,2.474,5.83,6.597,10.596,12.599,13.974,5.978,3.528,17.5,5.223,34.223,5.223h103.358c86.498,0,153.616-39.378,195.468-119.773l-52.665,152.931H250.342v-16.585h21.671c14.431,0,28.084-3.516,40.981-10.435,9.69-4.765,16.287-11.968,19.654-21.658,3.551-9.667,5.224-29.321,5.224-59.113v-228.491h86.612Z" fill="#101314" />
</svg>
