<svg xmlns="http://www.w3.org/2000/svg" viewBox="0 0 1024 1024" role="img" aria-label="Elysia icon">
  <rect width="1024" height="1024" fill="#fbf8f4" />
  <g transform="translate(32 32) scale(1.133412)">
    <circle cx="423.5" cy="423.5" r="416" fill="#fbf8f4" stroke="#1d1916" stroke-miterlimit="10" stroke-width="15" />
    <path d="M282.02,202.292v-26.941h311.399l5.248,109.292c-11.558-59.476-56.357-82.35-110.295-82.35h-206.352Z" fill="#1d1916" />
    <path d="M352.392,398.42h109.29c28.327,0,47.163-4.234,56.637-12.721,12.731-11.233,19.71-30.943,21.199-59.141h13.475v172.927h-13.475c-3.35-24.214-6.849-39.803-10.218-46.67-4.374-8.478-11.596-15.216-21.572-20.083-9.994-4.867-25.349-7.361-46.046-7.361h-109.29v163.696c0,21.953,1.004,35.307,2.866,40.044,2.01,4.737,5.36,8.609,10.236,11.354,4.857,2.866,14.219,4.244,27.806,4.244h83.979c70.28,0,124.813-31.995,158.818-97.315l-42.79,124.256H210.903v-13.476h17.608c11.726,0,22.818-2.857,33.297-8.478,7.873-3.871,13.233-9.724,15.969-17.598,2.885-7.855,4.244-23.824,4.244-48.029v-185.649h70.372Z" fill="#1d1916" />
  </g>
</svg>
